<svg width="342" height="68" viewBox="0 0 342 68" fill="none" xmlns="http://www.w3.org/2000/svg">
<path d="M38.3749 66.3759H0.0866699L33.4951 3.50058H2.52662V0.685272H38.1872L4.77887 63.5606H38.3749V66.3759Z" fill="#91734B"/>
<path d="M87.5932 60.8391C84.1522 65.1559 78.5216 67.3143 70.7013 67.3143C62.881 67.3143 57.2816 65.0934 53.9033 60.6514C50.5249 56.2095 48.8357 49.0461 48.8357 39.1612C48.8357 29.2763 50.5249 22.1129 53.9033 17.671C57.2816 13.2291 62.881 11.0081 70.7013 11.0081C79.7729 11.0081 85.9352 13.9798 89.1885 19.9232L66.1968 39.1612H61.7861L85.5286 19.3602C82.7758 15.669 77.8334 13.8234 70.7013 13.8234C67.5732 13.8234 64.9455 14.1675 62.8184 14.8557C60.6913 15.4813 58.7206 16.7013 56.9062 18.5156C55.1545 20.2673 53.8407 22.8637 52.9648 26.3046C52.0889 29.683 51.651 33.9685 51.651 39.1612C51.651 44.3539 52.0889 48.6707 52.9648 52.1116C53.8407 55.49 55.1545 58.0864 56.9062 59.9007C58.7206 61.6524 60.6913 62.8724 62.8184 63.5606C64.9455 64.1862 67.5732 64.499 70.7013 64.499C77.8334 64.499 82.7758 62.6534 85.5286 58.9622L87.5932 60.8391Z" fill="#91734B"/>
<path d="M137.877 11.9465V14.7618H118.17V66.3759H115.355V14.7618H95.6475V11.9465H137.877Z" fill="#91734B"/>
<path d="M153.665 63.5606H184.258L165.02 18.2341L144.562 66.3759H141.559L165.02 11.0081L188.481 66.3759H153.665V63.5606Z" fill="#91734B"/>
<path d="M212.609 66.3759H199.096V11.9465H209.418C216.801 11.9465 222.369 13.2291 226.123 15.7941C229.939 18.3592 231.847 21.8627 231.847 26.3046C231.847 31.6224 229.501 35.47 224.809 37.8474C228.25 39.0361 230.815 40.8191 232.504 43.1965C234.193 45.5113 235.038 48.2015 235.038 51.2671C235.038 55.7716 233.161 59.4315 229.407 62.2468C225.716 64.9995 220.117 66.3759 212.609 66.3759ZM212.609 63.5606C218.115 63.5606 222.744 62.5596 226.498 60.5576C230.314 58.5556 232.222 55.4587 232.222 51.2671C232.222 49.3276 231.503 47.2318 230.064 44.9795C228.625 42.6647 226.404 40.9755 223.401 39.912L218.521 38.2228L223.026 35.8767C224.59 35.0634 225.966 33.8434 227.155 32.2168C228.406 30.5276 229.032 28.5569 229.032 26.3046C229.032 22.3632 227.155 19.454 223.401 17.5772C219.647 15.7003 214.987 14.7618 209.418 14.7618H201.911V63.5606H212.609Z" fill="#91734B"/>
<path d="M276.719 14.8557C274.592 14.1675 271.964 13.8234 268.836 13.8234C265.708 13.8234 263.08 14.1675 260.953 14.8557C258.826 15.4813 256.855 16.7013 255.041 18.5156C253.289 20.2673 251.975 22.8637 251.1 26.3046C250.224 29.683 249.786 33.9685 249.786 39.1612C249.786 44.3539 250.224 48.6707 251.1 52.1116C251.975 55.49 253.289 58.0864 255.041 59.9007C256.855 61.6524 258.826 62.8724 260.953 63.5606C263.08 64.1862 265.708 64.499 268.836 64.499C271.964 64.499 274.592 64.1862 276.719 63.5606C278.846 62.8724 280.786 61.6524 282.537 59.9007C284.352 58.0864 285.697 55.49 286.573 52.1116C287.448 48.6707 287.886 44.3539 287.886 39.1612C287.886 33.9685 287.448 29.683 286.573 26.3046C285.697 22.8637 284.352 20.2673 282.537 18.5156C280.786 16.7013 278.846 15.4813 276.719 14.8557ZM285.634 60.6514C282.256 65.0934 276.656 67.3143 268.836 67.3143C261.016 67.3143 255.416 65.0934 252.038 60.6514C248.66 56.2095 246.97 49.0461 246.97 39.1612C246.97 29.2763 248.66 22.1129 252.038 17.671C255.416 13.2291 261.016 11.0081 268.836 11.0081C276.656 11.0081 282.256 13.2291 285.634 17.671C289.012 22.1129 290.702 29.2763 290.702 39.1612C290.702 49.0461 289.012 56.2095 285.634 60.6514Z" fill="#91734B"/>
<path d="M341.327 11.9465V14.7618H321.62V66.3759H318.805V14.7618H299.098V11.9465H341.327Z" fill="#91734B"/>
</svg>
